<?xml version="1.0" encoding="UTF-8" standalone="no"?>
<!-- Created with Inkscape (http://www.inkscape.org/) -->

<svg
   width="300"
   height="300"
   viewBox="0 0 79.374998 79.375"
   version="1.1"
   id="svg1"
   inkscape:export-filename="bitmap.svg"
   inkscape:export-xdpi="96"
   inkscape:export-ydpi="96"
   xmlns:inkscape="http://www.inkscape.org/namespaces/inkscape"
   xmlns:sodipodi="http://sodipodi.sourceforge.net/DTD/sodipodi-0.dtd"
   xmlns="http://www.w3.org/2000/svg"
   xmlns:svg="http://www.w3.org/2000/svg">
  <sodipodi:namedview
     id="namedview1"
     pagecolor="#505050"
     bordercolor="#ffffff"
     borderopacity="1"
     inkscape:showpageshadow="0"
     inkscape:pageopacity="0"
     inkscape:pagecheckerboard="1"
     inkscape:deskcolor="#505050"
     inkscape:document-units="mm"
     inkscape:lockguides="false"
     showguides="true" />
  <defs
     id="defs1">
    <rect
       x="88.774025"
       y="156.90292"
       width="93.315956"
       height="40.877342"
       id="rect3" />
    <rect
       x="62.34827"
       y="100.7482"
       width="166.39969"
       height="42.116051"
       id="rect2" />
    <filter
       style="color-interpolation-filters:sRGB"
       inkscape:label="Drop Shadow"
       id="filter52"
       x="-0.14705735"
       y="-0.19087982"
       width="1.2731065"
       height="1.4347818">
      <feFlood
         result="flood"
         in="SourceGraphic"
         flood-opacity="0.498039"
         flood-color="rgb(0,0,0)"
         id="feFlood51" />
      <feGaussianBlur
         result="blur"
         in="SourceGraphic"
         stdDeviation="3.000000"
         id="feGaussianBlur51" />
      <feOffset
         result="offset"
         in="blur"
         dx="-1.200000"
         dy="2.000000"
         id="feOffset51" />
      <feComposite
         result="comp1"
         operator="in"
         in="flood"
         in2="offset"
         id="feComposite51" />
      <feComposite
         result="comp2"
         operator="over"
         in="SourceGraphic"
         in2="comp1"
         id="feComposite52" />
    </filter>
  </defs>
  <g
     inkscape:label="Camada 1"
     inkscape:groupmode="layer"
     id="layer1">
    <path
       style="fill:#00c3c3;fill-opacity:1;stroke-width:0.0965461"
       d="M 38.203577,59.862359 C 35.126811,59.627996 33.211353,59.364797 31.077708,58.883206 25.028553,57.517838 19.923454,54.98456 16.043631,51.422915 7.5740665,43.647932 7.7511881,32.827633 16.473538,25.160076 c 4.801141,-4.22054 11.299623,-6.868562 19.258375,-7.847465 1.842635,-0.226638 7.426104,-0.226638 9.268736,0 3.016397,0.371007 5.661277,0.930085 8.041418,1.699803 8.358334,2.703016 14.561923,7.877484 16.871219,14.072429 1.941569,5.208482 1.015547,10.692077 -2.612805,15.472166 -4.575762,6.028235 -12.876611,10.107449 -22.660283,11.135753 -1.276509,0.134165 -5.456033,0.244293 -6.436621,0.169597 z"
       id="path2" />
    <ellipse
       style="fill:#ffffff;fill-opacity:1;stroke-width:0.297673;filter:url(#filter52)"
       id="path3"
       cx="40.468224"
       cy="38.870533"
       rx="28.560286"
       ry="18.860035" />
    <ellipse
       style="fill:#280b0b;fill-opacity:1;stroke-width:0.264583"
       id="path11-0"
       cx="29.429295"
       cy="52.618561"
       rx="0.67497241"
       ry="0.66076249" />
    <text
       xml:space="preserve"
       transform="matrix(1.1432456,-0.06423114,0.05391028,0.95954528,-58.352097,-65.787197)"
       id="text2"
       style="font-style:normal;font-variant:normal;font-weight:normal;font-stretch:normal;font-size:12px;font-family:Consolas;-inkscape-font-specification:'Consolas, Normal';font-variant-ligatures:normal;font-variant-caps:normal;font-variant-numeric:normal;font-variant-east-asian:normal;white-space:pre;shape-inside:url(#rect2);fill:#ff0000;fill-opacity:1"><tspan
         x="62.347656"
         y="111.16016"
         id="tspan1">LOJA</tspan></text>
    <text
       xml:space="preserve"
       transform="matrix(1.0568953,-0.08900464,0.08031339,0.94776267,-68.050531,-101.45083)"
       id="text3"
       style="font-style:normal;font-variant:normal;font-weight:normal;font-stretch:normal;font-size:12px;font-family:Consolas;-inkscape-font-specification:'Consolas, Normal';font-variant-ligatures:normal;font-variant-caps:normal;font-variant-numeric:normal;font-variant-east-asian:normal;white-space:pre;shape-inside:url(#rect3);fill:#ff0000;fill-opacity:1"><tspan
         x="88.773438"
         y="167.31445"
         id="tspan2">TOP</tspan></text>
    <g
       id="g5">
      <path
         style="fill:#280b0b;fill-opacity:1;stroke-width:0.264583"
         d="m 24.167597,45.706094 7.975038,-0.109246 -0.436988,3.058917 h -7.428803 z"
         id="path6" />
      <path
         style="fill:#280b0b;fill-opacity:1;stroke-width:0.264583"
         d="m 23.534034,42.720609 c 0,0 -3.914318,-0.449183 -2.775315,0.529397 1.139002,0.978577 1.812778,0.625647 1.973201,0.898366 0.160423,0.272719 0.77003,-1.347552 0.77003,-1.347552 z"
         id="path12" />
      <path
         style="fill:#280b0b;fill-opacity:1;stroke-width:0.264583"
         d="m 21.193939,42.934113 c 3.932895,2.512681 0.983223,8.412027 3.932895,8.521274 2.949673,0.109246 5.462355,0 5.462355,0 0,0 0.546235,-1.747954 -2.403435,-1.420212 -2.949672,0.327739 -3.05892,-0.218496 -3.05892,-0.218496 0,0 -0.546235,-6.991815 -1.638706,-7.101062 -1.092471,-0.109246 -2.075695,0.218496 -2.294189,0.218496 z"
         id="path4" />
    </g>
    <ellipse
       style="fill:#280b0b;fill-opacity:1;stroke-width:0.264583"
       id="path11"
       cx="25.926046"
       cy="52.555485"
       rx="0.67497241"
       ry="0.66076249" />
  </g>
</svg>
